# xmcd CD database file
#
# Track frame offsets:
#	150
#	10175
#	22727
#	38357
#	47912
#	60147
#	71872
#	85797
#	96110
#	126932
#	149402
#	159750
#	171187
#	185940
#	198967
#	210457
#	223805
#	237647
#
# Disc length: 3338 seconds
#
# Revision: 0
# Processed by: cddbd v1.5.2PL0 Copyright (c) Steve Scherf et al.
# Submitted via: CDex 1.51
#
DISCID=f60d0812
DTITLE=Various Artist - Living The Blues: 18 Classic Blues Tracks
DYEAR=1998
DGENRE=Blues
TTITLE0=Howlin' Wolf - Down In The Bottom
TTITLE1=Big Mama Thornton - Just Like A Dog
TTITLE2=Little Milton - Blind Man
TTITLE3=Bo Diddley - Crackin' Up
TTITLE4=Sugar Pie DeSanto - Use What You Got
TTITLE5=Bobby Bland - Two Steps From The Blues
TTITLE6=Albert King and Otis Rush - Howlin' For My Baby
TTITLE7=Chuck Berry - I Got To Find My Baby
TTITLE8=John Lee Hooker - Let's Go Out Tonight
TTITLE9=Muddy Waters - Country Boy
TTITLE10=Elmore James - I Can't Hold Out
TTITLE11=Jimmy Rogers - You're The One
TTITLE12=Eddie Boyd - Third Degree
TTITLE13=Little Parker Junior - Driving Me Mad
TTITLE14=Sonny Boy Williamson - Your Funeral and My Trial
TTITLE15=Lowell Fulson - Hung Down Head
TTITLE16=Little Walter - You Better Watch Yourself
TTITLE17=Clarence 'Gatemouth' Brown - Swingin' The Gate
EXTD=YEAR: 1998
EXTT0=
EXTT1=
EXTT2=
EXTT3=
EXTT4=
EXTT5=
EXTT6=
EXTT7=
EXTT8=
EXTT9=
EXTT10=
EXTT11=
EXTT12=
EXTT13=
EXTT14=
EXTT15=
EXTT16=
EXTT17=
PLAYORDER=
